# xmcd CD database file
#
# Track frame offsets:
#	150
#	42572
#	62567
#	96927
#	136622
#	171005
#	203227
#	224112
#	263622
#	295607
#
# Disc length: 4426 seconds
#
# Revision: 0
# Processed by: cddbd v1.5.1PL0 Copyright (c) Steve Scherf et al.
# Submitted via: CDex 1.51
#
DISCID=9411480a
DTITLE=Cecil Payne - Payne's Window
DYEAR=1998
DGENRE=Jazz
TTITLE0=Spiritus Parkus
TTITLE1=Martin Luther King Jr.
TTITLE2=James
TTITLE3=That's It Blues
TTITLE4=Payne's Window
TTITLE5=Southside Samba
TTITLE6=Lover Man
TTITLE7=Tune Up
TTITLE8=Delillah
TTITLE9=Hold Tight
EXTD=YEAR: 1998
EXTT0=
EXTT1=
EXTT2=
EXTT3=
EXTT4=
EXTT5=
EXTT6=
EXTT7=
EXTT8=
EXTT9=
PLAYORDER=
